<mxfile host="app.diagrams.net" modified="2024-04-15T03:52:03.393Z" agent="Mozilla/5.0 (Macintosh; Intel Mac OS X 10_15_7) AppleWebKit/537.36 (KHTML, like Gecko) Chrome/123.0.0.0 Safari/537.36" etag="kN_iGDFHOQLlxyiNxp9i" version="24.1.0" type="github">
  <diagram name="第 1 页" id="-eDkwl12F-QOlbyeysbe">
    <mxGraphModel dx="2385" dy="1453" grid="1" gridSize="10" guides="1" tooltips="1" connect="1" arrows="1" fold="1" page="1" pageScale="1" pageWidth="827" pageHeight="1169" math="0" shadow="0">
      <root>
        <mxCell id="0" />
        <mxCell id="1" parent="0" />
        <mxCell id="7y4wzvwvHm5Z2yI3zDkl-1" value="请求转换" style="rounded=1;whiteSpace=wrap;html=1;strokeWidth=2;fillWeight=4;hachureGap=8;hachureAngle=45;fillColor=#dae8fc;strokeColor=#6c8ebf;fontSize=16;" vertex="1" parent="1">
          <mxGeometry x="320" y="40" width="120" height="60" as="geometry" />
        </mxCell>
        <mxCell id="7y4wzvwvHm5Z2yI3zDkl-13" style="edgeStyle=orthogonalEdgeStyle;rounded=0;orthogonalLoop=1;jettySize=auto;html=1;exitX=0.5;exitY=1;exitDx=0;exitDy=0;" edge="1" parent="1" source="7y4wzvwvHm5Z2yI3zDkl-3" target="7y4wzvwvHm5Z2yI3zDkl-6">
          <mxGeometry relative="1" as="geometry" />
        </mxCell>
        <mxCell id="7y4wzvwvHm5Z2yI3zDkl-3" value="流量筛选" style="rounded=1;whiteSpace=wrap;html=1;strokeWidth=2;fillWeight=4;hachureGap=8;hachureAngle=45;fillColor=#dae8fc;strokeColor=#6c8ebf;fontSize=16;" vertex="1" parent="1">
          <mxGeometry x="320" y="280" width="120" height="60" as="geometry" />
        </mxCell>
        <mxCell id="7y4wzvwvHm5Z2yI3zDkl-12" style="edgeStyle=orthogonalEdgeStyle;rounded=0;orthogonalLoop=1;jettySize=auto;html=1;exitX=0.5;exitY=1;exitDx=0;exitDy=0;entryX=0.5;entryY=0;entryDx=0;entryDy=0;" edge="1" parent="1" source="7y4wzvwvHm5Z2yI3zDkl-4" target="7y4wzvwvHm5Z2yI3zDkl-3">
          <mxGeometry relative="1" as="geometry" />
        </mxCell>
        <mxCell id="7y4wzvwvHm5Z2yI3zDkl-4" value="填充Auction" style="rounded=1;whiteSpace=wrap;html=1;strokeWidth=2;fillWeight=4;hachureGap=8;hachureAngle=45;fillColor=#dae8fc;strokeColor=#6c8ebf;fontSize=16;" vertex="1" parent="1">
          <mxGeometry x="320" y="160" width="120" height="60" as="geometry" />
        </mxCell>
        <mxCell id="7y4wzvwvHm5Z2yI3zDkl-16" style="edgeStyle=orthogonalEdgeStyle;rounded=0;orthogonalLoop=1;jettySize=auto;html=1;exitX=0.5;exitY=1;exitDx=0;exitDy=0;entryX=0.5;entryY=0;entryDx=0;entryDy=0;" edge="1" parent="1" source="7y4wzvwvHm5Z2yI3zDkl-5" target="7y4wzvwvHm5Z2yI3zDkl-8">
          <mxGeometry relative="1" as="geometry" />
        </mxCell>
        <mxCell id="7y4wzvwvHm5Z2yI3zDkl-5" value="流量封装" style="rounded=1;whiteSpace=wrap;html=1;strokeWidth=2;fillWeight=4;hachureGap=8;hachureAngle=45;fillColor=#dae8fc;strokeColor=#6c8ebf;fontSize=16;" vertex="1" parent="1">
          <mxGeometry x="160" y="520" width="120" height="60" as="geometry" />
        </mxCell>
        <mxCell id="7y4wzvwvHm5Z2yI3zDkl-14" style="edgeStyle=orthogonalEdgeStyle;rounded=0;orthogonalLoop=1;jettySize=auto;html=1;exitX=0.5;exitY=1;exitDx=0;exitDy=0;" edge="1" parent="1" source="7y4wzvwvHm5Z2yI3zDkl-6" target="7y4wzvwvHm5Z2yI3zDkl-5">
          <mxGeometry relative="1" as="geometry" />
        </mxCell>
        <mxCell id="7y4wzvwvHm5Z2yI3zDkl-15" style="edgeStyle=orthogonalEdgeStyle;rounded=0;orthogonalLoop=1;jettySize=auto;html=1;exitX=0.5;exitY=1;exitDx=0;exitDy=0;entryX=0.5;entryY=0;entryDx=0;entryDy=0;" edge="1" parent="1" source="7y4wzvwvHm5Z2yI3zDkl-6" target="7y4wzvwvHm5Z2yI3zDkl-7">
          <mxGeometry relative="1" as="geometry" />
        </mxCell>
        <mxCell id="7y4wzvwvHm5Z2yI3zDkl-6" value="seat" style="rounded=1;whiteSpace=wrap;html=1;strokeWidth=2;fillWeight=4;hachureGap=8;hachureAngle=45;fillColor=#dae8fc;strokeColor=#6c8ebf;fontSize=16;" vertex="1" parent="1">
          <mxGeometry x="320" y="400" width="120" height="60" as="geometry" />
        </mxCell>
        <mxCell id="7y4wzvwvHm5Z2yI3zDkl-17" style="edgeStyle=orthogonalEdgeStyle;rounded=0;orthogonalLoop=1;jettySize=auto;html=1;entryX=0.5;entryY=0;entryDx=0;entryDy=0;" edge="1" parent="1" source="7y4wzvwvHm5Z2yI3zDkl-7" target="7y4wzvwvHm5Z2yI3zDkl-9">
          <mxGeometry relative="1" as="geometry" />
        </mxCell>
        <mxCell id="7y4wzvwvHm5Z2yI3zDkl-7" value="流量封装" style="rounded=1;whiteSpace=wrap;html=1;strokeWidth=2;fillWeight=4;hachureGap=8;hachureAngle=45;fillColor=#dae8fc;strokeColor=#6c8ebf;fontSize=16;" vertex="1" parent="1">
          <mxGeometry x="480" y="520" width="120" height="60" as="geometry" />
        </mxCell>
        <mxCell id="7y4wzvwvHm5Z2yI3zDkl-18" style="edgeStyle=orthogonalEdgeStyle;rounded=0;orthogonalLoop=1;jettySize=auto;html=1;" edge="1" parent="1" source="7y4wzvwvHm5Z2yI3zDkl-8" target="7y4wzvwvHm5Z2yI3zDkl-10">
          <mxGeometry relative="1" as="geometry">
            <Array as="points">
              <mxPoint x="220" y="730" />
              <mxPoint x="380" y="730" />
            </Array>
          </mxGeometry>
        </mxCell>
        <mxCell id="7y4wzvwvHm5Z2yI3zDkl-8" value="dsp特殊处理" style="rounded=1;whiteSpace=wrap;html=1;strokeWidth=2;fillWeight=4;hachureGap=8;hachureAngle=45;fillColor=#dae8fc;strokeColor=#6c8ebf;fontSize=16;" vertex="1" parent="1">
          <mxGeometry x="160" y="640" width="120" height="60" as="geometry" />
        </mxCell>
        <mxCell id="7y4wzvwvHm5Z2yI3zDkl-19" style="edgeStyle=orthogonalEdgeStyle;rounded=0;orthogonalLoop=1;jettySize=auto;html=1;entryX=0.5;entryY=0;entryDx=0;entryDy=0;exitX=0.5;exitY=1;exitDx=0;exitDy=0;" edge="1" parent="1" source="7y4wzvwvHm5Z2yI3zDkl-9" target="7y4wzvwvHm5Z2yI3zDkl-10">
          <mxGeometry relative="1" as="geometry" />
        </mxCell>
        <mxCell id="7y4wzvwvHm5Z2yI3zDkl-9" value="dsp特殊处理" style="rounded=1;whiteSpace=wrap;html=1;strokeWidth=2;fillWeight=4;hachureGap=8;hachureAngle=45;fillColor=#dae8fc;strokeColor=#6c8ebf;fontSize=16;" vertex="1" parent="1">
          <mxGeometry x="480" y="640" width="120" height="60" as="geometry" />
        </mxCell>
        <mxCell id="7y4wzvwvHm5Z2yI3zDkl-22" style="edgeStyle=orthogonalEdgeStyle;rounded=0;orthogonalLoop=1;jettySize=auto;html=1;exitX=0.5;exitY=1;exitDx=0;exitDy=0;" edge="1" parent="1" source="7y4wzvwvHm5Z2yI3zDkl-10" target="7y4wzvwvHm5Z2yI3zDkl-20">
          <mxGeometry relative="1" as="geometry" />
        </mxCell>
        <mxCell id="7y4wzvwvHm5Z2yI3zDkl-23" style="edgeStyle=orthogonalEdgeStyle;rounded=0;orthogonalLoop=1;jettySize=auto;html=1;entryX=0.5;entryY=0;entryDx=0;entryDy=0;exitX=0.5;exitY=1;exitDx=0;exitDy=0;" edge="1" parent="1" source="7y4wzvwvHm5Z2yI3zDkl-10" target="7y4wzvwvHm5Z2yI3zDkl-21">
          <mxGeometry relative="1" as="geometry" />
        </mxCell>
        <mxCell id="7y4wzvwvHm5Z2yI3zDkl-10" value="流量分发" style="rounded=1;whiteSpace=wrap;html=1;strokeWidth=2;fillWeight=4;hachureGap=8;hachureAngle=45;fillColor=#dae8fc;strokeColor=#6c8ebf;fontSize=16;" vertex="1" parent="1">
          <mxGeometry x="320" y="760" width="120" height="60" as="geometry" />
        </mxCell>
        <mxCell id="7y4wzvwvHm5Z2yI3zDkl-11" value="" style="endArrow=classic;html=1;rounded=0;fontSize=13;strokeWidth=2;strokeColor=default;exitX=0.5;exitY=1;exitDx=0;exitDy=0;entryX=0.5;entryY=0;entryDx=0;entryDy=0;sketch=1;curveFitting=1;jiggle=2;" edge="1" parent="1" source="7y4wzvwvHm5Z2yI3zDkl-1" target="7y4wzvwvHm5Z2yI3zDkl-4">
          <mxGeometry width="50" height="50" relative="1" as="geometry">
            <mxPoint x="120" y="170" as="sourcePoint" />
            <mxPoint x="170" y="120" as="targetPoint" />
          </mxGeometry>
        </mxCell>
        <mxCell id="7y4wzvwvHm5Z2yI3zDkl-33" style="edgeStyle=orthogonalEdgeStyle;rounded=0;orthogonalLoop=1;jettySize=auto;html=1;entryX=0.5;entryY=0;entryDx=0;entryDy=0;" edge="1" parent="1" source="7y4wzvwvHm5Z2yI3zDkl-20" target="7y4wzvwvHm5Z2yI3zDkl-31">
          <mxGeometry relative="1" as="geometry" />
        </mxCell>
        <mxCell id="7y4wzvwvHm5Z2yI3zDkl-20" value="dsp特殊处理" style="rounded=1;whiteSpace=wrap;html=1;strokeWidth=2;fillWeight=4;hachureGap=8;hachureAngle=45;fillColor=#dae8fc;strokeColor=#6c8ebf;fontSize=16;" vertex="1" parent="1">
          <mxGeometry x="160" y="880" width="120" height="60" as="geometry" />
        </mxCell>
        <mxCell id="7y4wzvwvHm5Z2yI3zDkl-34" style="edgeStyle=orthogonalEdgeStyle;rounded=0;orthogonalLoop=1;jettySize=auto;html=1;entryX=0.5;entryY=0;entryDx=0;entryDy=0;" edge="1" parent="1" source="7y4wzvwvHm5Z2yI3zDkl-21" target="7y4wzvwvHm5Z2yI3zDkl-32">
          <mxGeometry relative="1" as="geometry" />
        </mxCell>
        <mxCell id="7y4wzvwvHm5Z2yI3zDkl-21" value="dsp特殊处理" style="rounded=1;whiteSpace=wrap;html=1;strokeWidth=2;fillWeight=4;hachureGap=8;hachureAngle=45;fillColor=#dae8fc;strokeColor=#6c8ebf;fontSize=16;" vertex="1" parent="1">
          <mxGeometry x="480" y="880" width="120" height="60" as="geometry" />
        </mxCell>
        <mxCell id="7y4wzvwvHm5Z2yI3zDkl-29" style="edgeStyle=orthogonalEdgeStyle;rounded=0;orthogonalLoop=1;jettySize=auto;html=1;" edge="1" parent="1" source="7y4wzvwvHm5Z2yI3zDkl-24" target="7y4wzvwvHm5Z2yI3zDkl-28">
          <mxGeometry relative="1" as="geometry">
            <Array as="points">
              <mxPoint x="220" y="1210" />
              <mxPoint x="380" y="1210" />
            </Array>
          </mxGeometry>
        </mxCell>
        <mxCell id="7y4wzvwvHm5Z2yI3zDkl-24" value="筛选" style="rounded=1;whiteSpace=wrap;html=1;strokeWidth=2;fillWeight=4;hachureGap=8;hachureAngle=45;fillColor=#dae8fc;strokeColor=#6c8ebf;fontSize=16;" vertex="1" parent="1">
          <mxGeometry x="160" y="1120" width="120" height="60" as="geometry" />
        </mxCell>
        <mxCell id="7y4wzvwvHm5Z2yI3zDkl-30" style="edgeStyle=orthogonalEdgeStyle;rounded=0;orthogonalLoop=1;jettySize=auto;html=1;exitX=0.5;exitY=1;exitDx=0;exitDy=0;entryX=0.5;entryY=0;entryDx=0;entryDy=0;" edge="1" parent="1" source="7y4wzvwvHm5Z2yI3zDkl-25" target="7y4wzvwvHm5Z2yI3zDkl-28">
          <mxGeometry relative="1" as="geometry" />
        </mxCell>
        <mxCell id="7y4wzvwvHm5Z2yI3zDkl-25" value="筛选" style="rounded=1;whiteSpace=wrap;html=1;strokeWidth=2;fillWeight=4;hachureGap=8;hachureAngle=45;fillColor=#dae8fc;strokeColor=#6c8ebf;fontSize=16;" vertex="1" parent="1">
          <mxGeometry x="480" y="1120" width="120" height="60" as="geometry" />
        </mxCell>
        <mxCell id="7y4wzvwvHm5Z2yI3zDkl-38" style="edgeStyle=orthogonalEdgeStyle;rounded=0;orthogonalLoop=1;jettySize=auto;html=1;" edge="1" parent="1" source="7y4wzvwvHm5Z2yI3zDkl-28" target="7y4wzvwvHm5Z2yI3zDkl-37">
          <mxGeometry relative="1" as="geometry" />
        </mxCell>
        <mxCell id="7y4wzvwvHm5Z2yI3zDkl-28" value="比较/竞拍" style="rounded=1;whiteSpace=wrap;html=1;strokeWidth=2;fillWeight=4;hachureGap=8;hachureAngle=45;fillColor=#dae8fc;strokeColor=#6c8ebf;fontSize=16;" vertex="1" parent="1">
          <mxGeometry x="320" y="1240" width="120" height="60" as="geometry" />
        </mxCell>
        <mxCell id="7y4wzvwvHm5Z2yI3zDkl-35" style="edgeStyle=orthogonalEdgeStyle;rounded=0;orthogonalLoop=1;jettySize=auto;html=1;entryX=0.5;entryY=0;entryDx=0;entryDy=0;" edge="1" parent="1" source="7y4wzvwvHm5Z2yI3zDkl-31" target="7y4wzvwvHm5Z2yI3zDkl-24">
          <mxGeometry relative="1" as="geometry" />
        </mxCell>
        <mxCell id="7y4wzvwvHm5Z2yI3zDkl-31" value="响应包装" style="rounded=1;whiteSpace=wrap;html=1;strokeWidth=2;fillWeight=4;hachureGap=8;hachureAngle=45;fillColor=#dae8fc;strokeColor=#6c8ebf;fontSize=16;" vertex="1" parent="1">
          <mxGeometry x="160" y="1000" width="120" height="60" as="geometry" />
        </mxCell>
        <mxCell id="7y4wzvwvHm5Z2yI3zDkl-36" style="edgeStyle=orthogonalEdgeStyle;rounded=0;orthogonalLoop=1;jettySize=auto;html=1;entryX=0.5;entryY=0;entryDx=0;entryDy=0;" edge="1" parent="1" source="7y4wzvwvHm5Z2yI3zDkl-32" target="7y4wzvwvHm5Z2yI3zDkl-25">
          <mxGeometry relative="1" as="geometry" />
        </mxCell>
        <mxCell id="7y4wzvwvHm5Z2yI3zDkl-32" value="响应包装" style="rounded=1;whiteSpace=wrap;html=1;strokeWidth=2;fillWeight=4;hachureGap=8;hachureAngle=45;fillColor=#dae8fc;strokeColor=#6c8ebf;fontSize=16;" vertex="1" parent="1">
          <mxGeometry x="480" y="1000" width="120" height="60" as="geometry" />
        </mxCell>
        <mxCell id="7y4wzvwvHm5Z2yI3zDkl-42" style="edgeStyle=orthogonalEdgeStyle;rounded=0;orthogonalLoop=1;jettySize=auto;html=1;" edge="1" parent="1" source="7y4wzvwvHm5Z2yI3zDkl-37" target="7y4wzvwvHm5Z2yI3zDkl-39">
          <mxGeometry relative="1" as="geometry" />
        </mxCell>
        <mxCell id="7y4wzvwvHm5Z2yI3zDkl-37" value="包装" style="rounded=1;whiteSpace=wrap;html=1;strokeWidth=2;fillWeight=4;hachureGap=8;hachureAngle=45;fillColor=#dae8fc;strokeColor=#6c8ebf;fontSize=16;" vertex="1" parent="1">
          <mxGeometry x="320" y="1360" width="120" height="60" as="geometry" />
        </mxCell>
        <mxCell id="7y4wzvwvHm5Z2yI3zDkl-43" style="edgeStyle=orthogonalEdgeStyle;rounded=0;orthogonalLoop=1;jettySize=auto;html=1;" edge="1" parent="1" source="7y4wzvwvHm5Z2yI3zDkl-39" target="7y4wzvwvHm5Z2yI3zDkl-40">
          <mxGeometry relative="1" as="geometry" />
        </mxCell>
        <mxCell id="7y4wzvwvHm5Z2yI3zDkl-39" value="响应转换" style="rounded=1;whiteSpace=wrap;html=1;strokeWidth=2;fillWeight=4;hachureGap=8;hachureAngle=45;fillColor=#dae8fc;strokeColor=#6c8ebf;fontSize=16;" vertex="1" parent="1">
          <mxGeometry x="320" y="1480" width="120" height="60" as="geometry" />
        </mxCell>
        <mxCell id="7y4wzvwvHm5Z2yI3zDkl-40" value="bidlog" style="rounded=1;whiteSpace=wrap;html=1;strokeWidth=2;fillWeight=4;hachureGap=8;hachureAngle=45;fillColor=#dae8fc;strokeColor=#6c8ebf;fontSize=16;" vertex="1" parent="1">
          <mxGeometry x="320" y="1600" width="120" height="60" as="geometry" />
        </mxCell>
      </root>
    </mxGraphModel>
  </diagram>
</mxfile>
